<svg width="271" height="271" viewBox="0 0 271 271" fill="none" xmlns="http://www.w3.org/2000/svg">
<path d="M228.343 87.8241C210.161 66.9771 178.719 57.6176 152.498 67.2732C146.94 69.3183 124.045 69.3183 118.49 67.2732C92.273 57.6226 60.832 66.9822 42.6574 87.8241C21.0778 112.583 14.3379 145.693 18.9524 176.903C24.8216 216.582 46.9733 243.767 88.0148 255.98C110.929 262.797 119.754 259.139 135.508 259.139C151.261 259.139 160.098 262.797 183 255.98C224.042 243.767 246.193 216.584 252.063 176.903C256.67 145.698 249.942 112.588 228.343 87.8241Z" fill="#FF6363"/>
<path d="M228.343 87.8241C210.161 66.9771 178.719 57.6176 152.498 67.2732C146.94 69.3183 124.045 69.3183 118.49 67.2732C109.858 64.094 100.674 63.0075 91.5629 63.6875C106.526 66.9495 107.045 85.8944 153.951 82.4166C197.539 79.1847 229.73 143.893 204.921 197.178C189.524 230.28 136.95 252.682 67.9357 248.048C74.3743 251.293 81.093 253.949 88.0098 255.985C110.924 262.802 119.749 259.144 135.503 259.144C151.256 259.144 160.093 262.802 182.998 255.985C224.037 243.772 246.188 216.589 252.058 176.908C256.67 145.698 249.942 112.585 228.343 87.8241Z" fill="#F25757"/>
<path d="M131.799 63.3663C127.25 49.864 114.676 41.1945 100.594 39.0265C107.06 45.9496 111.735 51.8037 113.424 63.3663C106.217 58.802 86.3235 54.7219 74.8939 61.9938C89.4476 64.4077 97.4094 68.1113 105.414 78.3667C105.414 78.3667 99.1584 83.5759 97.6052 89.6031C96.4986 93.9015 97.299 103.929 97.299 103.929C107.017 91.5754 128.268 99.2538 129.957 85.892C129.957 85.892 151.983 91.3145 159.682 107.14C162.384 86.9408 152.759 82.8231 152.759 82.8231C162.492 76.55 179.801 82.2786 189.645 85.912C183.623 75.9277 169.726 66.9747 156.55 68.0511C162.321 58.7869 171.934 53.924 182.832 53.4297C166.738 46.9307 143.437 45.9496 131.791 63.3488L131.799 63.3663Z" fill="#56A875"/>
<path d="M140.912 10.8902C122.954 25.07 124.901 59.5472 127.021 76.0306C128.316 76.6754 129.922 76.8235 131.714 75.6768C131.771 65.6874 132.522 50.1325 136.23 39.714C141.575 24.7087 150.004 20.1845 150.004 20.1845C150.006 10.1173 140.912 10.8902 140.912 10.8902Z" fill="#428F60"/>
<path d="M74.2138 87.5481C57.605 93.3194 26.4852 111.045 35.8523 161.345C36.2487 163.478 39.3201 163.453 39.6814 161.315C42.5119 144.604 51.0584 112.084 76.1108 90.8628C77.7519 89.4727 76.2463 86.8404 74.2138 87.5481Z" fill="#FF8585"/>
</svg>
